<?xml version="1.0" encoding="UTF-8" standalone="no"?>
<!-- Created with Inkscape (http://www.inkscape.org/) -->

<svg
   width="500"
   height="250"
   viewBox="0 0 132.29166 66.145835"
   version="1.1"
   id="svg5"
   inkscape:version="1.1.1 (3bf5ae0d25, 2021-09-20)"
   sodipodi:docname="FindLocationEarth.svg"
   inkscape:export-filename="C:\Users\Fadhil\source\repos\QurankuWPF\QurankuWPF\Image\FindLocationEarth.png"
   inkscape:export-xdpi="95.999992"
   inkscape:export-ydpi="95.999992"
   xmlns:inkscape="http://www.inkscape.org/namespaces/inkscape"
   xmlns:sodipodi="http://sodipodi.sourceforge.net/DTD/sodipodi-0.dtd"
   xmlns:xlink="http://www.w3.org/1999/xlink"
   xmlns="http://www.w3.org/2000/svg"
   xmlns:svg="http://www.w3.org/2000/svg">
  <sodipodi:namedview
     id="namedview7"
     pagecolor="#ffffff"
     bordercolor="#999999"
     borderopacity="1"
     inkscape:pageshadow="0"
     inkscape:pageopacity="0"
     inkscape:pagecheckerboard="0"
     inkscape:document-units="mm"
     showgrid="false"
     units="px"
     width="793.70081px"
     inkscape:zoom="1.3606449"
     inkscape:cx="187.04366"
     inkscape:cy="123.10339"
     inkscape:window-width="1366"
     inkscape:window-height="697"
     inkscape:window-x="-8"
     inkscape:window-y="-8"
     inkscape:window-maximized="1"
     inkscape:current-layer="layer1">
    <inkscape:grid
       type="xygrid"
       id="grid879" />
  </sodipodi:namedview>
  <defs
     id="defs2">
    <linearGradient
       inkscape:collect="always"
       id="linearGradient3610">
      <stop
         style="stop-color:#8ae070;stop-opacity:1"
         offset="0"
         id="stop3606" />
      <stop
         style="stop-color:#b8fea3;stop-opacity:1"
         offset="1"
         id="stop3608" />
    </linearGradient>
    <linearGradient
       inkscape:collect="always"
       id="linearGradient1011">
      <stop
         style="stop-color:#0041f1;stop-opacity:0.60742706"
         offset="0"
         id="stop1007" />
      <stop
         style="stop-color:#252dff;stop-opacity:0.77718824"
         offset="1"
         id="stop1009" />
    </linearGradient>
    <linearGradient
       inkscape:collect="always"
       xlink:href="#linearGradient1011"
       id="linearGradient1013"
       x1="33.072918"
       y1="66.145836"
       x2="33.072918"
       y2="0"
       gradientUnits="userSpaceOnUse"
       gradientTransform="scale(1.9999998,1)" />
    <linearGradient
       inkscape:collect="always"
       xlink:href="#linearGradient3610"
       id="linearGradient3612"
       x1="10.27018"
       y1="33.327404"
       x2="10.378547"
       y2="11.877403"
       gradientUnits="userSpaceOnUse" />
    <filter
       style="color-interpolation-filters:sRGB"
       inkscape:label="Drop Shadow"
       id="filter5302"
       x="-0.087365283"
       y="-0.10517689"
       width="1.3203394"
       height="1.4294723">
      <feFlood
         flood-opacity="0.192157"
         flood-color="rgb(0,0,0)"
         result="flood"
         id="feFlood5292" />
      <feComposite
         in="flood"
         in2="SourceGraphic"
         operator="in"
         result="composite1"
         id="feComposite5294" />
      <feGaussianBlur
         in="composite1"
         stdDeviation="0.5"
         result="blur"
         id="feGaussianBlur5296" />
      <feOffset
         dx="0"
         dy="1"
         result="offset"
         id="feOffset5298" />
      <feComposite
         in="SourceGraphic"
         in2="offset"
         operator="over"
         result="fbSourceGraphic"
         id="feComposite5300" />
      <feColorMatrix
         result="fbSourceGraphicAlpha"
         in="fbSourceGraphic"
         values="0 0 0 -1 0 0 0 0 -1 0 0 0 0 -1 0 0 0 0 1 0"
         id="feColorMatrix5382" />
      <feFlood
         id="feFlood5384"
         flood-opacity="0.192157"
         flood-color="rgb(0,0,0)"
         result="flood"
         in="fbSourceGraphic" />
      <feComposite
         in2="fbSourceGraphic"
         id="feComposite5386"
         in="flood"
         operator="in"
         result="composite1" />
      <feGaussianBlur
         id="feGaussianBlur5388"
         in="composite1"
         stdDeviation="0.5"
         result="blur" />
      <feOffset
         id="feOffset5390"
         dx="4"
         dy="4"
         result="offset" />
      <feComposite
         in2="offset"
         id="feComposite5392"
         in="fbSourceGraphic"
         operator="over"
         result="composite2" />
    </filter>
    <linearGradient
       inkscape:collect="always"
       xlink:href="#linearGradient3610"
       id="linearGradient5519"
       x1="55.472164"
       y1="53.457718"
       x2="55.137058"
       y2="27.470217"
       gradientUnits="userSpaceOnUse" />
    <filter
       style="color-interpolation-filters:sRGB"
       inkscape:label="Drop Shadow"
       id="filter5753"
       x="-0.072557107"
       y="-0.084154201"
       width="1.2660427"
       height="1.3786939">
      <feFlood
         flood-opacity="0.192157"
         flood-color="rgb(0,0,0)"
         result="flood"
         id="feFlood5743" />
      <feComposite
         in="flood"
         in2="SourceGraphic"
         operator="in"
         result="composite1"
         id="feComposite5745" />
      <feGaussianBlur
         in="composite1"
         stdDeviation="0.5"
         result="blur"
         id="feGaussianBlur5747" />
      <feOffset
         dx="0"
         dy="2"
         result="offset"
         id="feOffset5749" />
      <feComposite
         in="SourceGraphic"
         in2="offset"
         operator="over"
         result="fbSourceGraphic"
         id="feComposite5751" />
      <feColorMatrix
         result="fbSourceGraphicAlpha"
         in="fbSourceGraphic"
         values="0 0 0 -1 0 0 0 0 -1 0 0 0 0 -1 0 0 0 0 1 0"
         id="feColorMatrix5869" />
      <feFlood
         id="feFlood5871"
         flood-opacity="0.192157"
         flood-color="rgb(0,0,0)"
         result="flood"
         in="fbSourceGraphic" />
      <feComposite
         in2="fbSourceGraphic"
         id="feComposite5873"
         in="flood"
         operator="in"
         result="composite1" />
      <feGaussianBlur
         id="feGaussianBlur5875"
         in="composite1"
         stdDeviation="0.5"
         result="blur" />
      <feOffset
         id="feOffset5877"
         dx="4"
         dy="4"
         result="offset" />
      <feComposite
         in2="offset"
         id="feComposite5879"
         in="fbSourceGraphic"
         operator="over"
         result="composite2" />
    </filter>
    <linearGradient
       inkscape:collect="always"
       xlink:href="#linearGradient3610"
       id="linearGradient6592"
       x1="90.61573"
       y1="17.889801"
       x2="90.319817"
       y2="-3.131707"
       gradientUnits="userSpaceOnUse" />
    <filter
       style="color-interpolation-filters:sRGB;"
       inkscape:label="Drop Shadow"
       id="filter7020"
       x="-0.045631133"
       y="-0.10777299"
       width="1.1673142"
       height="1.4849784">
      <feFlood
         flood-opacity="0.192157"
         flood-color="rgb(0,0,0)"
         result="flood"
         id="feFlood7010" />
      <feComposite
         in="flood"
         in2="SourceGraphic"
         operator="in"
         result="composite1"
         id="feComposite7012" />
      <feGaussianBlur
         in="composite1"
         stdDeviation="0.5"
         result="blur"
         id="feGaussianBlur7014" />
      <feOffset
         dx="0"
         dy="2"
         result="offset"
         id="feOffset7016" />
      <feComposite
         in="SourceGraphic"
         in2="offset"
         operator="over"
         result="fbSourceGraphic"
         id="feComposite7018" />
      <feColorMatrix
         result="fbSourceGraphicAlpha"
         in="fbSourceGraphic"
         values="0 0 0 -1 0 0 0 0 -1 0 0 0 0 -1 0 0 0 0 1 0"
         id="feColorMatrix7388" />
      <feFlood
         id="feFlood7390"
         flood-opacity="0.192157"
         flood-color="rgb(0,0,0)"
         result="flood"
         in="fbSourceGraphic" />
      <feComposite
         in2="fbSourceGraphic"
         id="feComposite7392"
         in="flood"
         operator="in"
         result="composite1" />
      <feGaussianBlur
         id="feGaussianBlur7394"
         in="composite1"
         stdDeviation="0.5"
         result="blur" />
      <feOffset
         id="feOffset7396"
         dx="4"
         dy="4"
         result="offset" />
      <feComposite
         in2="offset"
         id="feComposite7398"
         in="fbSourceGraphic"
         operator="over"
         result="composite2" />
    </filter>
  </defs>
  <g
     inkscape:label="Layer 1"
     inkscape:groupmode="layer"
     id="layer1">
    <rect
       style="fill:url(#linearGradient1013);fill-opacity:1;stroke-width:0.748355;paint-order:markers stroke fill"
       id="rect1005"
       width="132.29167"
       height="66.145836"
       x="0"
       y="0"
       ry="0.26458332" />
    <path
       style="fill:url(#linearGradient3612);fill-opacity:1;stroke:none;stroke-width:0.264583px;stroke-linecap:butt;stroke-linejoin:miter;stroke-opacity:1;filter:url(#filter5302)"
       d="M 3.8499999,18.15 C 4.9899913,18.333432 4.6582602,13.89587 5.775,13.3375 c 0.8714272,-0.435714 2.4945173,-0.0065 3.3,-0.275 0.8234624,-0.274488 1.468113,-1.367602 2.3375,-1.5125 0.509734,-0.08496 1.537896,-0.131151 2.0625,0 0.474945,0.118736 0.909496,0.394832 1.375,0.55 0.965154,0.321718 2.057055,0.445514 3.025,0.6875 0.815627,0.203907 4.744665,2.911942 5.225,3.7125 0.515031,0.858385 0.245669,1.832432 0.4125,2.75 0.162584,0.894211 0.552333,2.342166 0.9625,3.1625 0.0205,0.04099 0.117002,-0.041 0.1375,0 0.173035,0.346071 -0.03727,2.724299 -0.1375,3.025 -0.128544,0.385632 -0.332499,0.837493 -0.4125,1.2375 -0.02697,0.134829 0.05107,0.284835 0,0.412499 -0.04815,0.120364 -0.203091,0.167137 -0.275,0.275 -0.02542,0.03814 0,0.09167 0,0.137501 -0.04583,0.09166 -0.07601,0.193011 -0.1375,0.275 -0.333663,0.444884 -1.152566,0.839552 -1.65,1.237499 -0.444814,0.355851 -0.658114,0.918421 -0.9625,1.375 -0.08489,0.127336 -1.87469,1.624846 -1.925,1.649999 -0.169025,0.08451 -0.380975,0.05299 -0.55,0.137502 -0.115951,0.05798 -0.15905,0.217024 -0.275,0.275 -0.519677,0.259839 -3.146587,-0.234471 -3.85,0 -0.824095,0.274698 0.345358,-0.03518 -0.55,0.412498 -0.169025,0.08451 -0.376304,0.06306 -0.55,0.137502 -0.151893,0.0651 -0.259065,0.213627 -0.4125,0.275 -0.32385,0.12954 -0.775355,0.04474 -1.1,0.137498 -0.251372,0.07182 -0.46171,0.337238 -0.6875,0.412502 -0.538485,0.179496 -1.085492,0.05686 -1.65,0.137498 -0.8833202,0.126191 -1.7014092,0.275 -2.6125001,0.275 -0.4665218,0 -1.5069436,0.176043 -1.9250001,-0.137498 C 4.8761541,34.044614 3.449412,32.485737 3.4375,32.45 c -0.028987,-0.08696 0.050848,-0.198729 0,-0.275 -0.056849,-0.08527 -0.2181508,-0.05223 -0.275,-0.137502 -0.1618073,-0.24271 0.058765,-2.122405 0,-2.474999 C 3.101932,29.199094 2.702062,28.958249 2.6125,28.6 2.535722,28.292885 2.530946,28.065169 2.3375,27.775 2.26219,27.662034 1.4005764,26.687788 1.375,26.675 c -0.083019,-0.04151 -0.3489387,0.06356 -0.41250001,0 -0.0324091,-0.03241 0.0324091,-0.105092 0,-0.137501 C 0.85048065,26.42548 0.28305995,26.19778 0.1375,26.125 -0.09038844,26.011055 -0.11916496,25.730835 -0.275,25.575 -0.3536756,25.49632 -0.62249592,25.49501 -0.68749999,25.3 c -0.30455865,-0.913676 0.24768624,-2.721755 0,-3.7125 -0.0157208,-0.06288 -0.11700272,-0.07601 -0.13749999,-0.1375 -0.11858331,-0.35575 7.5142e-4,-0.754369 -0.13750001,-1.1 C -1.0722553,20.075612 -1.6094621,19.517057 -1.7875,19.25 c -0.050847,-0.07627 0.064818,-0.210182 0,-0.275 -0.032409,-0.03241 -0.1170027,0.04099 -0.1375,0 -0.2301472,-0.460295 0.1200102,-1.40998 -0.275,-2.2 -0.091071,-0.182142 -0.7657304,-2.12177 -0.55,-2.3375 0.6613865,-0.661387 2.4914237,-0.269526 3.3,0 0.6006129,0.200204 -0.0969756,0.09871 0.6875,0.4125 0.2725837,0.109033 0.5421462,0.08643 0.825,0.275 0.2321344,0.154756 0.6070199,0.858559 0.6875,1.1 0.028987,0.08696 -0.050848,0.198728 0,0.275 0.056849,0.08527 0.2025312,0.06503 0.275,0.1375 0.4092419,0.409242 0.8249999,0.950103 0.8249999,1.5125 z"
       id="path1877" />
    <path
       style="opacity:1;fill:url(#linearGradient5519);fill-opacity:1;stroke:none;stroke-width:0.264583px;stroke-linecap:butt;stroke-linejoin:miter;stroke-opacity:1;filter:url(#filter5753)"
       d="m 35.337501,27.087499 c -0.132337,1.197075 0.386138,1.12137 0.687498,1.925 0.08206,0.218826 0.0636,0.465788 0.137502,0.687501 0.267967,0.803905 1.172882,2.584326 1.65,3.3 0.155035,0.232555 0.409755,0.45376 0.55,0.687498 0.591542,0.985907 1.020238,2.177982 1.512498,3.162501 0.09208,0.184161 0.328025,0.190524 0.412501,0.275 0.102487,0.102487 0.05054,0.296551 0.137499,0.412502 0.741775,0.989033 -0.152678,-0.290179 0.55,0.412498 0.327978,0.327978 0.670221,0.710295 0.962501,1.1 0.138197,0.184264 0.195771,0.489426 0.275,0.687501 0.297948,0.744871 -0.06459,-0.245149 0.412499,0.55 0.454591,0.757651 0.616707,1.76878 1.375,2.337499 0.98706,0.740293 2.107798,1.359366 3.162501,2.062501 0.678608,0.452406 1.109175,1.109176 1.65,1.65 0.02928,0.02928 1.508365,1.029184 1.65,1.1 0.08199,0.04099 0.210182,-0.06482 0.274999,0 0.03241,0.03241 -0.03241,0.10509 0,0.137498 0.239885,0.239888 0.818621,0.31871 1.1,0.412502 0.259141,0.08638 0.79529,0.382788 0.962502,0.55 0.03241,0.03241 -0.03241,0.10509 0,0.137498 0.102486,0.102487 0.291904,0.0571 0.412498,0.137502 0.250164,0.166774 0.0034,0.278357 0.137502,0.412498 0.140954,0.140957 0.157191,0.0524 0.412498,0.137502 0.429181,0.14306 -0.04583,0.09167 0.137502,0.275 0.141901,0.141901 0.399597,0.1998 0.549999,0.275 0.240107,0.120052 0.01979,0.327429 0.275,0.412498 0.130443,0.04348 0.289515,-0.06149 0.412499,0 0.0767,0.03835 0.512797,0.375298 0.55,0.412501 0.03241,0.03241 -0.04099,0.117002 0,0.137499 0.08199,0.041 0.189889,-0.03404 0.275,0 0.464757,0.185904 1.087361,0.818682 1.65,1.100003 0.572243,0.28612 -0.146992,-0.0095 0.137501,0.275 0.143362,0.143362 0.631706,0.226676 0.825,0.275 0.425641,0.10641 0.15865,0.177689 0.55,0.412498 0.206928,0.124159 1.285984,0.493371 1.512499,0.55 0.280558,0.07014 0.693139,0.04771 0.962501,0.137502 0.06149,0.0205 0.09166,0.09166 0.137499,0.137498 0.183335,0.04583 0.363595,0.106434 0.549999,0.137502 0.648412,0.108066 1.356718,-0.146643 1.925,0.137498 0.173599,0.0868 0.693002,-0.131998 0.825,0 0.210566,0.210566 0.171964,0.275 0.55,0.275 0.16954,0 0.89045,0.347051 1.1,0.137501 0.05019,-0.05019 -0.01461,-0.513461 0,-0.549999 0.06137,-0.153438 0.213627,-0.259067 0.275,-0.412502 0.05107,-0.127664 -0.06149,-0.289515 0,-0.412498 0.156485,-0.312971 0.499242,-0.542616 0.687501,-0.825 0.648023,-0.972037 0.401789,-2.105351 0.137499,-3.162501 -0.09167,-0.366668 0.173926,-0.272267 -0.137499,-0.687502 -0.219797,-0.293063 -0.585237,-0.387794 -0.825,-0.687498 -0.37421,-0.467762 -0.837342,-1.124686 -1.1,-1.65 -0.17513,-0.350258 -0.23737,-0.749742 -0.412501,-1.1 -0.147807,-0.295616 -0.411496,-0.524912 -0.55,-0.825 -0.139827,-0.302961 -0.151077,-0.652695 -0.275,-0.962501 -0.160856,-0.402143 -0.698812,-0.72144 -0.825,-1.1 -0.02899,-0.08696 0.041,-0.193011 0,-0.275 -0.109998,-0.219998 -0.439999,-0.329999 -0.55,-0.55 -0.597783,-1.195567 -1.6369,-2.602674 -2.749999,-3.437498 -0.10413,-0.0781 -0.462018,-0.187021 -0.55,-0.275 -0.03241,-0.03241 0.0205,-0.09651 0,-0.137502 -0.09887,-0.197733 -0.634011,-0.454506 -0.825,-0.55 C 58.584851,36.648675 57.788201,36.475701 57.475,36.162501 57.16281,35.850311 57.04011,35.578915 56.787499,35.2 56.629368,34.962803 56.228456,34.842682 56.1,34.65 56.04915,34.57373 56.15085,34.451271 56.1,34.375 55.986301,34.204452 55.694936,34.244938 55.55,34.1 55.477531,34.02753 55.494488,33.886491 55.412499,33.825 55.296548,33.738036 55.129636,33.752319 55,33.687498 54.524692,33.449844 54.149529,33.174842 53.625001,33 53.375533,32.916844 53.043513,32.94367 52.800001,32.862498 52.527165,32.771556 52.394902,32.50648 52.112499,32.45 51.017243,32.230949 50.054036,31.718011 48.949998,31.35 48.41504,31.171679 48.083258,30.77913 47.574998,30.525 47.257967,30.366483 46.800992,30.275495 46.474999,30.112499 46.16524,29.95762 44.864149,29.514757 44.549999,29.425 43.097465,29.009991 45.440562,30.028724 43.5875,29.287499 42.862965,28.997687 41.984525,28.893809 41.249999,28.6 40.042803,27.875682 41.07467,28.404058 40.0125,28.05 38.887053,27.67485 38.076957,26.738479 37.124999,26.2625 36.506023,25.953011 36.071055,25.926314 35.475,26.125 c -0.130445,0.04348 -0.315273,-0.09723 -0.412499,0 -0.235942,0.235941 0.125775,0.664054 0.275,0.962499 z"
       id="path5478" />
    <path
       style="fill:url(#linearGradient6592);stroke:none;stroke-width:0.264583px;stroke-linecap:butt;stroke-linejoin:miter;stroke-opacity:1;fill-opacity:1;filter:url(#filter7020)"
       d="m 65.725574,-0.38890873 c 0.332507,3.46860553 1.388991,6.66706873 2.916817,9.72271803 0.486113,0.9722307 0.74237,2.6869147 1.36118,3.3057247 0.175223,0.175224 0.740408,0.272977 0.972273,0.388908 0.429741,0.214872 0.885679,0.619318 1.361178,0.777818 0.731353,0.243783 1.588164,-0.178191 2.333453,0.194454 0.991102,0.495551 1.797505,0.56525 2.916816,0.972272 0.219634,0.07987 0.37433,0.284392 0.583362,0.388909 0.917596,0.458798 1.945621,0.680913 2.916817,0.972271 0.871474,0.261443 1.88492,0.957367 2.722361,1.166727 0.812348,0.203087 1.706689,0.224665 2.527906,0.388908 0.581223,0.116245 2.195679,0.758925 2.722361,0.583363 0.362773,-0.120924 0.484402,-0.242201 0.777817,-0.388908 0.173927,-0.08696 0.398889,0.06149 0.583364,0 0.08696,-0.02899 0.129635,-0.129637 0.194453,-0.194455 0.194455,-0.06482 0.386278,-0.138144 0.583364,-0.194454 0.574601,-0.164172 1.183163,-0.199933 1.750089,-0.388909 0.257045,-0.08568 0.529952,-0.45943 0.777817,-0.583363 0.117853,-0.05893 0.50188,-0.112969 0.583363,-0.194454 0.39727,-0.39727 1.136013,-1.545397 1.75009,-1.750089 1.064233,-0.354745 2.893049,0.103168 4.083545,-0.194455 2.00464,-0.501161 3.74396,-1.910126 5.63917,-2.722361 0.8365,-0.3585 1.84481,-0.752883 2.72236,-0.972272 0.42586,-0.106463 0.9268,0.0724 1.36118,0 0.37959,-0.06326 1.98353,-0.4084 2.33346,-0.583363 0.058,-0.02899 -0.029,-0.136479 0,-0.194454 0.16998,-0.3399735 0.75004,-0.5555836 0.97227,-0.7778177 0.16525,-0.1652542 0.22365,-0.4181086 0.38891,-0.5833631 1.07376,-1.0737591 1.63266,-1.008893 2.139,-2.5279067 0.0965,-0.2895856 0.51099,-0.6828064 0.58336,-0.9722717 0.0472,-0.1886485 -0.0472,-0.3947147 0,-0.5833631 0.0837,-0.3348842 0.48626,-0.7783195 0.58336,-1.1667263 0.19641,-0.7856217 0.51336,-1.3456283 0.77782,-2.1389979 0.0657,-0.1969971 -0.1388,-0.83346942 0,-0.97227177 0.0458,-0.0458333 0.14862,0.0458333 0.19445,0 0.0917,-0.0916667 -0.058,-0.27295855 0,-0.38890873 0.082,-0.16397832 0.30692,-0.22493041 0.38891,-0.38890873 0.19478,-0.38956215 0.0613,-2.07766097 -0.19445,-2.33345237 -0.9826,-0.9825979 -8.32727,0 -9.33381,0 -2.06611,0 -4.01673,-0.6849356 -6.02809,-0.9722718 -1.1191,-0.1598713 -2.36259,0 -3.500176,0 -2.657541,0 -5.315085,0 -7.972628,0 -4.739902,0 -0.253982,-0.044288 -6.22254,0.1944545 -0.966271,0.038651 -1.952416,-0.074185 -2.916814,0 -1.947458,0.1498044 -3.883869,0.4440941 -5.833631,0.5833631 -2.664063,0.1902899 -4.921324,-0.2766904 -7.58372,0.3889086 -0.313862,0.078465 -0.919097,-0.053177 -1.166728,0.1944543 -0.04583,0.045833 0.04583,0.1486211 0,0.1944544 -0.204973,0.2049729 -0.572844,0.1839358 -0.777817,0.3889087 -0.339397,0.3393987 -0.569775,0.95868304 -0.972272,1.36118057 z"
       id="path6551" />
  </g>
</svg>
